<svg width="68" height="62" viewBox="0 0 68 62" fill="none" xmlns="http://www.w3.org/2000/svg">
<path fill-rule="evenodd" clip-rule="evenodd" d="M34.2681 1.65332C16.6811 1.65332 2.37207 14.561 2.37207 30.425C2.37207 46.289 16.6811 59.1966 34.2681 59.1966C51.8592 59.1966 66.1642 46.289 66.1642 30.425C66.1642 14.561 51.8552 1.65332 34.2681 1.65332ZM34.2361 52.3397C20.9117 52.3397 10.0609 42.4465 10.0609 30.2906C10.0609 18.1347 20.9117 8.24153 34.2361 8.24153C47.5605 8.24153 58.4073 18.1384 58.4073 30.2906C58.4073 42.4501 47.5605 52.3397 34.2361 52.3397Z" fill="#434343"/>
<path fill-rule="evenodd" clip-rule="evenodd" d="M34.1681 44.709C31.5504 44.709 30.3297 43.1219 30.3297 42.0542V33.8643H21.4281C20.3674 33.8643 18.2981 32.782 18.2981 30.2833C18.2981 27.908 20.0512 26.8003 21.2279 26.8003H30.3176V18.6758C30.3176 17.717 31.5104 15.8357 34.2641 15.8357C36.8818 15.8357 38.1025 17.4265 38.1025 18.4942V26.793H47.0522C48.1128 26.793 50.1861 27.879 50.1861 30.3777C50.1861 32.7493 48.433 33.857 47.2563 33.857H38.1105V41.8689C38.1145 42.8241 36.9258 44.709 34.1681 44.709Z" fill="#434343"/>
</svg>
