<?xml version="1.0" standalone="no"?>
<!DOCTYPE svg PUBLIC "-//W3C//DTD SVG 20010904//EN"
 "http://www.w3.org/TR/2001/REC-SVG-20010904/DTD/svg10.dtd">
<svg version="1.0" xmlns="http://www.w3.org/2000/svg"
 width="1200.000000pt" height="1200.000000pt" viewBox="0 0 1200.000000 1200.000000"
 preserveAspectRatio="xMidYMid meet">

<g transform="translate(0.000000,1200.000000) scale(0.100000,-0.100000)"
fill="#000000" stroke="none">
<path d="M7420 7592 c0 -297 0 -299 -22 -319 -58 -53 -129 -59 -170 -15 -36
38 -47 62 -54 123 -13 112 34 194 121 210 57 11 96 42 77 61 -6 6 -40 12 -75
12 -54 1 -71 -4 -113 -29 -74 -46 -108 -109 -113 -206 -7 -169 78 -279 214
-279 36 0 104 30 124 54 13 15 15 14 32 -14 16 -25 25 -30 58 -30 l38 0 -8 43
c-4 23 -8 187 -9 365 l0 322 -50 0 -50 0 0 -298z"/>
<path d="M8600 7525 l0 -365 50 0 50 0 0 365 0 365 -50 0 -50 0 0 -365z"/>
<path d="M10260 7592 c0 -297 0 -299 -22 -319 -58 -53 -129 -59 -170 -15 -36
38 -47 62 -54 123 -13 112 34 194 121 210 57 11 96 42 77 61 -6 6 -40 12 -75
12 -54 1 -71 -4 -113 -29 -74 -46 -108 -109 -113 -206 -7 -169 78 -279 214
-279 36 0 104 30 124 54 13 15 15 14 32 -14 16 -25 25 -30 58 -30 l38 0 -8 43
c-4 23 -8 187 -9 365 l0 322 -50 0 -50 0 0 -298z"/>
<path d="M2606 7854 c-24 -23 -24 -69 -1 -93 31 -32 105 -2 105 43 0 56 -67
88 -104 50z"/>
<path d="M1585 7833 c3 -16 45 -172 93 -348 l87 -320 60 -3 60 -3 69 268 c38
147 72 276 76 287 4 12 29 -67 69 -220 34 -132 68 -259 75 -284 l13 -45 56 -3
c66 -4 46 -50 157 363 44 165 83 308 86 318 5 15 -2 17 -44 17 l-50 0 -74
-297 -74 -297 -22 85 c-12 46 -46 176 -75 289 l-52 205 -57 3 -56 3 -15 -53
c-9 -29 -43 -159 -77 -288 -34 -129 -62 -235 -63 -237 -2 -1 -36 131 -76 293
l-73 294 -50 0 c-49 0 -50 0 -43 -27z"/>
<path d="M4955 7833 c3 -16 45 -172 93 -348 l87 -320 60 -3 60 -3 69 268 c38
147 72 276 76 287 4 12 29 -67 69 -220 34 -132 68 -259 75 -284 l13 -45 56 -3
c66 -4 46 -50 157 363 44 165 83 308 86 318 5 15 -2 17 -44 17 l-50 0 -74
-297 -74 -297 -22 85 c-12 46 -46 176 -75 289 l-52 205 -57 3 -56 3 -15 -53
c-9 -29 -43 -159 -77 -288 -34 -129 -62 -235 -63 -237 -2 -1 -36 131 -76 293
l-73 294 -50 0 c-49 0 -50 0 -43 -27z"/>
<path d="M3473 7798 c-33 -11 -33 -12 -33 -74 l0 -64 -45 -11 c-38 -10 -45
-15 -45 -35 0 -22 4 -24 45 -24 l45 0 0 -143 c0 -168 14 -223 64 -262 40 -30
107 -41 164 -26 45 13 47 16 33 54 -9 23 -13 24 -47 17 -45 -10 -78 1 -100 36
-16 23 -18 56 -18 285 -1 285 3 268 -63 247z"/>
<path d="M3070 7664 c-42 -14 -90 -38 -90 -45 0 -17 41 -29 99 -29 49 0 62 -4
71 -19 6 -12 10 -100 10 -215 l0 -196 50 0 50 0 0 208 c0 228 -3 242 -59 279
-32 22 -92 29 -131 17z"/>
<path d="M3980 7661 c-136 -42 -198 -183 -151 -346 20 -67 88 -136 154 -154
54 -15 146 -9 202 15 38 15 40 20 25 58 -9 25 -10 25 -51 11 -23 -8 -65 -15
-94 -15 -83 0 -135 53 -150 152 -21 137 72 249 168 203 36 -17 54 -43 59 -85
3 -24 1 -25 -71 -31 -66 -5 -77 -9 -99 -35 l-25 -29 138 -3 c76 -1 141 0 144
4 3 3 6 36 6 73 0 57 -4 74 -28 110 -45 67 -141 98 -227 72z"/>
<path d="M4540 7652 c-19 -9 -44 -31 -56 -49 l-22 -32 -6 31 c-9 45 -24 58
-64 58 l-35 0 7 -46 c3 -26 6 -139 6 -251 l0 -204 46 3 46 3 3 155 c1 85 7
168 14 183 20 50 58 77 111 77 l48 0 4 39 c3 33 0 41 -17 45 -33 9 -48 7 -85
-12z"/>
<path d="M6087 7656 c-96 -36 -149 -113 -155 -228 -7 -112 33 -197 115 -245
66 -39 167 -40 233 -3 126 71 166 248 85 386 -49 84 -180 127 -278 90z m162
-95 c78 -73 62 -280 -24 -319 -36 -17 -96 -15 -123 4 -78 54 -87 252 -14 317
46 41 116 40 161 -2z"/>
<path d="M6750 7664 c-42 -14 -90 -38 -90 -45 0 -17 41 -29 99 -29 49 0 62 -4
71 -19 6 -12 10 -100 10 -215 l0 -196 50 0 50 0 0 208 c0 228 -3 242 -59 279
-32 22 -92 29 -131 17z"/>
<path d="M7830 7661 c-136 -42 -198 -183 -151 -346 20 -67 88 -136 154 -154
54 -15 146 -9 202 15 38 15 40 20 25 58 -9 25 -10 25 -51 11 -23 -8 -65 -15
-94 -15 -83 0 -135 53 -150 152 -21 137 72 249 168 203 36 -17 54 -43 59 -85
3 -24 1 -25 -71 -31 -66 -5 -77 -9 -99 -35 l-25 -29 138 -3 c76 -1 141 0 144
4 3 3 6 36 6 73 0 57 -4 74 -28 110 -45 67 -141 98 -227 72z"/>
<path d="M8390 7652 c-19 -9 -44 -31 -56 -49 l-22 -32 -6 31 c-9 45 -24 58
-64 58 l-35 0 7 -46 c3 -26 6 -139 6 -251 l0 -204 46 3 46 3 3 155 c1 85 7
168 14 183 20 50 58 77 111 77 l48 0 4 39 c3 33 0 41 -17 45 -33 9 -48 7 -85
-12z"/>
<path d="M8945 7664 c-81 -21 -84 -23 -73 -55 10 -30 11 -30 62 -23 149 21
186 -18 186 -196 l0 -100 -42 -30 c-73 -53 -158 -32 -158 38 0 36 28 63 88 82
31 10 51 24 59 40 11 22 10 25 -8 28 -29 5 -118 -16 -164 -38 -102 -50 -103
-194 -2 -241 70 -31 148 -21 198 27 l27 26 16 -31 c14 -27 22 -31 55 -31 l39
0 -4 83 c-2 45 -6 130 -8 189 -4 122 -25 173 -84 210 -34 21 -141 33 -187 22z"/>
<path d="M9590 7664 c-42 -14 -90 -38 -90 -45 0 -17 41 -29 99 -29 49 0 62 -4
71 -19 6 -12 10 -100 10 -215 l0 -196 50 0 50 0 0 208 c0 228 -3 242 -59 279
-32 22 -92 29 -131 17z"/>
<path d="M2600 7410 l0 -250 50 0 50 0 0 250 0 250 -50 0 -50 0 0 -250z"/>
<path d="M2835 7643 c5 -10 10 -123 13 -250 l4 -233 49 0 49 0 0 210 c0 169
-3 217 -16 250 -16 38 -18 40 -61 40 -39 0 -44 -2 -38 -17z"/>
<path d="M3576 7648 c23 -42 49 -58 91 -58 43 0 43 0 43 35 l0 35 -71 0 c-53
0 -68 -3 -63 -12z"/>
<path d="M6515 7643 c5 -10 10 -123 13 -250 l4 -233 49 0 49 0 0 210 c0 169
-3 217 -16 250 -16 38 -18 40 -61 40 -39 0 -44 -2 -38 -17z"/>
<path d="M9355 7643 c5 -10 10 -123 13 -250 l4 -233 49 0 49 0 0 210 c0 169
-3 217 -16 250 -16 38 -18 40 -61 40 -39 0 -44 -2 -38 -17z"/>
<path d="M5840 6305 l-155 -155 158 -158 157 -157 157 157 158 158 -155 155
c-85 85 -157 155 -160 155 -3 0 -75 -70 -160 -155z"/>
<path d="M1200 6110 l0 -110 2100 0 2100 0 0 110 0 110 -2100 0 -2100 0 0
-110z"/>
<path d="M6600 6110 l0 -110 2100 0 2100 0 0 110 0 110 -2100 0 -2100 0 0
-110z"/>
<path d="M5669 5238 c-26 -20 -557 -823 -565 -852 -14 -56 54 -103 102 -71 13
9 133 178 265 376 182 274 244 359 252 350 7 -6 100 -136 207 -288 212 -301
226 -315 279 -276 39 29 39 72 1 124 -26 36 -28 45 -17 58 76 91 163 186 169
186 4 0 101 -121 215 -270 200 -260 209 -270 245 -273 43 -4 78 24 78 62 0 26
-17 49 -314 434 -178 230 -200 252 -243 238 -10 -3 -69 -65 -132 -137 -73 -84
-117 -127 -123 -121 -5 5 -82 112 -171 238 -155 218 -164 229 -197 232 -19 2
-42 -3 -51 -10z"/>
<path d="M5126 4119 c-32 -25 -35 -70 -6 -99 20 -20 33 -20 880 -20 l859 0 21
22 c27 29 25 64 -5 93 l-24 25 -849 0 c-844 0 -849 0 -876 -21z"/>
<path d="M5120 3828 c-26 -29 -26 -72 2 -98 22 -20 30 -20 875 -20 l854 0 24
25 c14 13 25 33 25 45 0 12 -11 32 -25 45 l-24 25 -855 0 -855 0 -21 -22z"/>
</g>
</svg>
